<?xml version="1.0" encoding="UTF-8" standalone="no"?>

<svg
   xmlns="http://www.w3.org/2000/svg"
   width="160mm"
   height="100mm"
   viewBox="0 0 720 450"
   version="1.1"
   role="img"
   aria-labelledby="multiple-pole-title multiple-pole-description">
  <title id="multiple-pole-title">Two separate poles attached to one cart</title>
  <desc id="multiple-pole-description">A topology schematic of two unjointed poles attached directly to the same cart at separate pivots P1 and P2. Each pole has its own angle and centre of mass G1 or G2. The poles are not connected to one another, and both pivots move horizontally with the cart.</desc>
  <style type="text/css">
    .cart-body { fill:#7893a8;stroke:#263746;stroke-width:2 }
    .wheel { fill:#667783;stroke:#263746;stroke-width:3 }
    .wheel-hub { fill:#d8e0e5;stroke:#263746;stroke-width:2 }
    .pole { fill:none;stroke:#263746;stroke-width:5;stroke-linecap:round }
    .point { fill:#000000;stroke:#000000;stroke-width:2 }
    .upright-guide { fill:none;stroke:#5f5f5f;stroke-width:1.5;stroke-dasharray:8 5 }
    .angle { fill:none;stroke:#000000;stroke-width:1.5;marker-end:url(#angleArrow) }
    .symbol { font-style:italic;font-size:28px;font-family:serif;fill:#000000 }
    .point-label { font-size:24px;font-family:serif;fill:#000000 }
  </style>
  <defs>
    <marker
       id="angleArrow"
       markerWidth="8"
       markerHeight="8"
       refX="7"
       refY="4"
       orient="auto"
       markerUnits="strokeWidth">
      <path d="M 0,0 8,4 0,8 Z" style="fill:#000000" />
    </marker>
    <pattern
       id="groundHatch"
       patternUnits="userSpaceOnUse"
       width="12"
       height="12">
      <path d="M 3,-3 -3,3 M 15,-3 -3,15 M 15,9 9,15" style="fill:none;stroke:#000000;stroke-width:1" />
    </pattern>
  </defs>

  <rect x="60" y="390" width="600" height="60" style="fill:url(#groundHatch)" />
  <path d="M 60,390 H 660" style="fill:none;stroke:#000000;stroke-width:4" />

  <rect x="170" y="300" width="380" height="60" rx="3" class="cart-body" />
  <path d="M 284,300 V 282 Q 284,270 300,270 Q 316,270 316,282 V 300 Z" class="cart-body" />
  <path d="M 404,300 V 282 Q 404,270 420,270 Q 436,270 436,282 V 300 Z" class="cart-body" />

  <circle cx="260" cy="370" r="20" class="wheel" />
  <circle cx="260" cy="370" r="6" class="wheel-hub" />
  <circle cx="460" cy="370" r="20" class="wheel" />
  <circle cx="460" cy="370" r="6" class="wheel-hub" />

  <path d="M 300,275 V 65" class="upright-guide" />
  <path d="M 420,275 V 65" class="upright-guide" />

  <path d="M 300,275 251,123" class="pole" />
  <path d="M 420,275 493,132" class="pole" />

  <path d="M 300,230 A 45,45 0 0 0 286,232" class="angle" />
  <path d="M 420,230 A 45,45 0 0 1 440,235" class="angle" />

  <circle cx="300" cy="275" r="5" class="point" />
  <circle cx="420" cy="275" r="5" class="point" />
  <circle cx="251" cy="123" r="7" class="point" />
  <circle cx="493" cy="132" r="7" class="point" />

  <text x="308" y="268" class="point-label">P₁</text>
  <text x="429" y="268" class="point-label">P₂</text>
  <text x="218" y="115" class="point-label">G₁</text>
  <text x="502" y="128" class="point-label">G₂</text>
  <text x="252" y="232" class="symbol">θ₁</text>
  <text x="443" y="222" class="symbol">θ₂</text>
  <text x="222" y="184" class="symbol">r₁</text>
  <text x="466" y="203" class="symbol">r₂</text>
  <text x="352" y="340" class="point-label">C</text>
</svg>
