<?xml version="1.0" encoding="UTF-8" standalone="no"?>
<!-- Created with Inkscape (http://www.inkscape.org/) -->

<svg
   xmlns:dc="http://purl.org/dc/elements/1.1/"
   xmlns:cc="http://creativecommons.org/ns#"
   xmlns:rdf="http://www.w3.org/1999/02/22-rdf-syntax-ns#"
   xmlns:svg="http://www.w3.org/2000/svg"
   xmlns="http://www.w3.org/2000/svg"
   xmlns:sodipodi="http://sodipodi.sourceforge.net/DTD/sodipodi-0.dtd"
   xmlns:inkscape="http://www.inkscape.org/namespaces/inkscape"
   viewBox="0 0 413.93927 110.20917"
   id="svg2"
   version="1.1"
   inkscape:version="0.92.1 r15371"
   sodipodi:docname="sharpneat_logo_banner.svg"
   width="441.53522"
   height="117.55644">
  <defs
     id="defs4">
    <clipPath
       clipPathUnits="userSpaceOnUse"
       id="clipPath3063">
      <path
         d="M 0,7031.89 V 0 h 4806.26 v 7031.89 z"
         id="path3065"
         inkscape:connector-curvature="0" />
    </clipPath>
    <clipPath
       clipPathUnits="userSpaceOnUse"
       id="clipPath3051">
      <path
         d="M 3563.78,4328.08 V 4508 h 629.95 v -179.92 z"
         id="path3053"
         inkscape:connector-curvature="0" />
    </clipPath>
    <clipPath
       clipPathUnits="userSpaceOnUse"
       id="clipPath3001">
      <path
         d="M 0,7031.89 V 0 h 4806.26 v 7031.89 z"
         id="path3003"
         inkscape:connector-curvature="0" />
    </clipPath>
  </defs>
  <sodipodi:namedview
     id="base"
     pagecolor="#ffffff"
     bordercolor="#666666"
     borderopacity="1.0"
     inkscape:pageopacity="0.0"
     inkscape:pageshadow="2"
     inkscape:zoom="1.3727065"
     inkscape:cx="26.251562"
     inkscape:cy="91.096215"
     inkscape:document-units="px"
     inkscape:current-layer="g3522"
     showgrid="false"
     showguides="false"
     inkscape:window-width="2048"
     inkscape:window-height="1089"
     inkscape:window-x="2552"
     inkscape:window-y="119"
     inkscape:window-maximized="1"
     fit-margin-top="0"
     fit-margin-left="0"
     fit-margin-right="0"
     fit-margin-bottom="0">
    <inkscape:grid
       type="xygrid"
       id="grid3404"
       originx="-8.1622923e-005"
       originy="-891.9184"
       spacingx="1"
       spacingy="1" />
  </sodipodi:namedview>
  <metadata
     id="metadata7">
    <rdf:RDF>
      <cc:Work
         rdf:about="">
        <dc:format>image/svg+xml</dc:format>
        <dc:type
           rdf:resource="http://purl.org/dc/dcmitype/StillImage" />
        <dc:title />
      </cc:Work>
    </rdf:RDF>
  </metadata>
  <g
     inkscape:label="Layer 1"
     inkscape:groupmode="layer"
     id="layer1"
     transform="translate(-8.162295e-5,-50.235174)">
    <flowRoot
       xml:space="preserve"
       id="flowRoot3372"
       style="font-style:normal;font-weight:normal;line-height:0.01%;font-family:sans-serif;letter-spacing:0px;word-spacing:0px;fill:#000000;fill-opacity:1;stroke:none;stroke-width:1px;stroke-linecap:butt;stroke-linejoin:miter;stroke-opacity:1"><flowRegion
         id="flowRegion3374"
         style="font-family:sans-serif"><rect
           id="rect3376"
           width="527.94769"
           height="141.76898"
           x="186.56798"
           y="25.954815"
           style="font-family:sans-serif" /></flowRegion><flowPara
         id="flowPara3378"
         style="font-size:72px;line-height:1.25;font-family:sans-serif"> </flowPara></flowRoot>    <text
       xml:space="preserve"
       style="font-style:normal;font-weight:normal;line-height:0%;font-family:sans-serif;letter-spacing:0px;word-spacing:0px;fill:#000000;fill-opacity:1;stroke:none;stroke-width:1px;stroke-linecap:butt;stroke-linejoin:miter;stroke-opacity:1"
       x="429.84354"
       y="131.43092"
       id="text3388"><tspan
         sodipodi:role="line"
         id="tspan3390"
         x="429.84354"
         y="131.43092"
         style="font-size:72px;line-height:1.25;font-family:sans-serif"> </tspan></text>
    <flowRoot
       xml:space="preserve"
       id="flowRoot3392"
       style="font-style:normal;font-weight:normal;line-height:0.01%;font-family:sans-serif;letter-spacing:0px;word-spacing:0px;fill:#000000;fill-opacity:1;stroke:none;stroke-width:1px;stroke-linecap:butt;stroke-linejoin:miter;stroke-opacity:1"><flowRegion
         id="flowRegion3394"
         style="font-family:sans-serif"><rect
           id="rect3396"
           width="324.75247"
           height="95.049507"
           x="285.14853"
           y="135.53052"
           style="font-family:sans-serif" /></flowRegion><flowPara
         id="flowPara3398"
         style="font-size:72px;line-height:1.25;font-family:sans-serif"> </flowPara></flowRoot>    <flowRoot
       xml:space="preserve"
       id="flowRoot3419"
       style="font-style:normal;font-variant:normal;font-weight:bold;font-stretch:normal;line-height:0.01%;font-family:'Lucida Schoolbook Italic';-inkscape-font-specification:'Lucida Schoolbook Italic, Bold';text-align:start;letter-spacing:0px;word-spacing:0px;writing-mode:lr-tb;text-anchor:start;fill:#000000;fill-opacity:1;stroke:none;stroke-width:1px;stroke-linecap:butt;stroke-linejoin:miter;stroke-opacity:1"><flowRegion
         id="flowRegion3421"><rect
           id="rect3423"
           width="474.35898"
           height="146.15384"
           x="165.38461"
           y="222.87503"
           style="font-style:normal;font-variant:normal;font-weight:bold;font-stretch:normal;font-size:72px;line-height:100%;font-family:'Lucida Schoolbook Italic';-inkscape-font-specification:'Lucida Schoolbook Italic, Bold';text-align:start;writing-mode:lr-tb;text-anchor:start" /></flowRegion><flowPara
         id="flowPara3427"
         style="font-size:72px;line-height:1"> </flowPara></flowRoot>    <g
       id="g3522"
       transform="matrix(0.70466003,0,0,0.70466003,-18.281563,47.0996)">
      <g
         transform="matrix(0.77805769,0,0,0.77805769,36.484162,-69.133979)"
         id="g3447" />
      <g
         id="g3491"
         transform="matrix(1.1180598,0,0,1.1180598,-3.0629207,-13.142819)">
        <g
           transform="matrix(0.84911672,0,0,0.84911672,-60.822716,-77.352263)"
           inkscape:label="Layer 1"
           id="layer1-3">
          <g
             id="g2999"
             clip-path="url(#clipPath3001)"
             transform="matrix(0.125,0,0,-0.125,30.244957,988.61451)">
            <g
               id="g3534">
              <path
                 id="path3005"
                 style="fill:#fbc459;fill-opacity:1;fill-rule:nonzero;stroke:none"
                 d="m 1159.91,6639.35 c 73.57,0 140.18,-29.82 188.4,-78.04 48.21,-48.21 78.03,-114.82 78.03,-188.4 0,-66.57 -24.48,-127.48 -64.95,-174.23 -40.2,-46.43 -96.18,-78.83 -159.59,-88.86 -8.08,-9.02 -13.41,-33.98 -14.93,-64.59 -1.68,-33.55 1.88,-72.01 11.96,-103.61 5.96,-18.66 14.08,-34.57 24.54,-44.82 11.91,-9.4 21.68,-21.4 28.45,-35.14 6.76,-13.73 10.56,-29.08 10.56,-45.23 0,-28.3 -11.47,-53.92 -30.01,-72.46 -18.55,-18.55 -44.17,-30.02 -72.46,-30.02 -28.3,0 -53.92,11.47 -72.46,30.02 -18.55,18.54 -30.02,44.16 -30.02,72.46 0,13.98 2.89,27.43 8.11,39.79 5.39,12.75 13.24,24.17 22.96,33.61 2.53,2.47 4.43,4.1 6.13,5.56 1.92,1.65 3.39,2.91 5.63,6.1 8.36,11.86 14.99,26.38 20.05,42.21 10.93,34.25 14.57,74.3 12.44,108.03 -1.83,29.01 -6.97,51.56 -14.38,58.03 -32.87,5.15 -63.76,16.33 -91.51,32.35 -28.239,16.31 -53.227,37.71 -73.751,62.97 -11.808,2.57 -36.195,-5.32 -63.601,-19.37 -29.727,-15.24 -61.184,-37.53 -83.586,-62.16 -13.227,-14.53 -22.969,-29.5 -26.609,-43.59 -2.2,-15.04 -7.715,-29.53 -16.243,-42.28 -8.461,-12.67 -19.851,-23.61 -33.859,-31.7 l -0.078,-0.04 c -24.516,-14.12 -52.395,-17 -77.664,-10.23 -25.317,6.79 -48.047,23.23 -62.188,47.72 -0.25,0.43 -0.476,0.86 -0.687,1.29 -13.555,24.22 -16.246,51.6 -9.586,76.46 6.785,25.31 23.226,48.04 47.726,62.18 12.293,7.1 25.407,11.37 38.575,13.01 13.613,1.7 27.39,0.58 40.492,-3.12 3.066,-0.87 5.582,-1.75 7.844,-2.54 2.488,-0.88 4.398,-1.55 8.187,-1.89 13.887,-1.26 29.383,0.18 45.426,3.59 35.344,7.5 72.117,24.36 100.433,43.11 24.411,16.15 41.551,31.97 43.559,41.71 -5.613,14.57 -9.984,29.71 -12.973,45.28 -3.156,16.45 -4.804,33.3 -4.804,50.4 0,17.12 1.648,33.98 4.804,50.43 2.961,15.43 7.282,30.43 12.817,44.88 -3.789,11.58 -23.02,28.83 -49.082,45.58 -28.442,18.29 -63.782,34.42 -96.274,41.27 -18.769,3.97 -36.183,4.78 -49.941,0.93 -14.113,-5.61 -29.352,-8.07 -44.559,-7.06 -15.152,0.99 -30.34,5.4 -44.425,13.53 l -0.059,0.04 -0.02,-0.04 c -24.5,14.15 -40.941,36.88 -47.726,62.19 -6.766,25.27 -3.879,53.15 10.273,77.66 14.18,24.56 36.907,41.03 62.188,47.81 25.265,6.76 53.148,3.87 77.656,-10.27 l 0.063,-0.04 0.023,0.04 c 12.23,-7.07 22.449,-16.27 30.461,-26.86 8.324,-11.01 14.273,-23.54 17.617,-36.75 0.758,-2.99 1.262,-5.64 1.703,-8.02 0.477,-2.51 0.836,-4.43 2.485,-7.98 6.023,-13.03 15.304,-26.03 26.582,-38.42 24.246,-26.66 57.058,-49.83 87.218,-64.79 26.149,-12.97 48.332,-19.79 57.618,-16.53 24.539,30.28 55.555,55.07 90.915,72.22 35.15,17.06 74.54,26.62 116.1,26.62"
                 inkscape:connector-curvature="0" />
              <path
                 id="path3007"
                 style="fill:#9796d3;fill-opacity:1;fill-rule:nonzero;stroke:none"
                 d="m 1203.32,6509.65 c 9.89,-3.14 19.37,-7.35 28.28,-12.51 8.77,-5.07 16.95,-11.04 24.42,-17.79 16.41,-1.96 63.33,17.87 115.27,46.5 55.97,30.85 115.19,71.71 147.88,107.66 11.27,12.37 18.91,23.5 21.34,32.41 2.2,15.03 7.72,29.5 16.23,42.24 8.47,12.66 19.86,23.61 33.87,31.7 l 0.07,0.04 c 24.52,14.12 52.4,17 77.66,10.23 25.32,-6.79 48.05,-23.23 62.19,-47.73 0.25,-0.42 0.48,-0.85 0.69,-1.29 13.56,-24.22 16.25,-51.6 9.59,-76.45 -6.79,-25.31 -23.23,-48.04 -47.73,-62.19 -12.29,-7.09 -25.4,-11.36 -38.57,-13.01 -13.62,-1.69 -27.4,-0.58 -40.5,3.13 -3.06,0.86 -5.58,1.75 -7.84,2.54 -2.49,0.88 -4.4,1.55 -8.19,1.89 -8.64,0.78 -19.83,-0.46 -32.8,-3.29 -48.75,-10.62 -115.9,-42.81 -171.43,-76.8 -50.42,-30.88 -90.12,-60.72 -93.74,-73.18 1.02,-4.61 1.81,-9.35 2.37,-14.18 0.66,-5.61 0.99,-11.17 0.99,-16.66 0,-5.47 -0.33,-11.03 -0.99,-16.64 -0.52,-4.57 -1.27,-9.05 -2.2,-13.42 6.57,-15.21 47.14,-45.87 97.82,-76.49 54.72,-33.06 119.72,-63.91 167.18,-74.26 16.44,-3.58 29.94,-4.64 38.88,-2.24 14.09,5.59 29.32,8.04 44.51,7.04 15.16,-0.99 30.35,-5.4 44.43,-13.54 l 0.06,-0.03 0.02,0.03 c 24.5,-14.14 40.94,-36.87 47.73,-62.18 6.76,-25.27 3.88,-53.16 -10.28,-77.66 -14.18,-24.56 -36.9,-41.04 -62.19,-47.81 -25.26,-6.77 -53.14,-3.88 -77.66,10.27 l -0.05,0.04 -0.02,-0.04 c -12.24,7.06 -22.46,16.27 -30.47,26.86 -8.32,11 -14.28,23.54 -17.62,36.74 -0.75,2.99 -1.26,5.65 -1.7,8.02 -0.47,2.51 -0.83,4.43 -2.48,7.99 -3.69,7.97 -10.32,17.02 -19.17,26.74 -33.61,36.94 -95.06,79.01 -152.24,110.09 -52.14,28.34 -97.99,47.81 -110.42,44.51 -12.62,-11.52 -27.39,-20.83 -43.68,-27.3 -16.51,-6.57 -34.38,-10.18 -52.92,-10.18 -39.62,0 -75.49,16.06 -101.45,42.03 -25.96,25.96 -42.02,61.82 -42.02,101.43 0,32.01 10.54,61.61 28.35,85.53 17.64,23.69 42.37,41.74 71.03,50.99 9.92,13.36 16.2,63.82 17.37,122.98 1.27,63.94 -4.51,135.69 -19.29,181.99 -5.07,15.89 -10.91,28.06 -17.49,34.66 -11.9,9.4 -21.65,21.39 -28.42,35.12 -6.76,13.71 -10.56,29.08 -10.56,45.23 0,28.3 11.47,53.91 30.02,72.46 18.54,18.54 44.16,30.02 72.46,30.02 28.29,0 53.91,-11.48 72.46,-30.02 18.54,-18.55 30.01,-44.16 30.01,-72.46 0,-13.98 -2.88,-27.43 -8.1,-39.79 -5.39,-12.76 -13.25,-24.17 -22.96,-33.62 -2.54,-2.46 -4.44,-4.09 -6.13,-5.55 -1.93,-1.66 -3.39,-2.91 -5.64,-6.1 -5.15,-7.3 -9.69,-17.56 -13.64,-29.95 -15.16,-47.51 -20.85,-121.81 -19.18,-186.97 1.53,-59.2 7.56,-108.55 16.59,-117.78"
                 inkscape:connector-curvature="0" />
            </g>
          </g>
        </g>
        <g
           id="text3429"
           style="font-style:normal;font-variant:normal;font-weight:bold;font-stretch:normal;font-size:90px;line-height:100%;font-family:'Lucida Schoolbook Italic';-inkscape-font-specification:'Lucida Schoolbook Italic, Bold';text-align:start;letter-spacing:-3.47999883px;word-spacing:0px;writing-mode:lr-tb;text-anchor:start;fill:#000000;fill-opacity:1;stroke:none;stroke-width:1px;stroke-linecap:butt;stroke-linejoin:miter;stroke-opacity:1"
           transform="matrix(0.77805769,0,0,0.77805769,36.484162,-69.133979)">
          <path
             inkscape:connector-curvature="0"
             id="path3405"
             d="m 221.42004,146.36256 q -4.39453,-1.75781 -8.61328,-2.76855 -4.21875,-1.01074 -7.4707,-1.01074 -2.50488,0 -4.52637,0.61523 -2.02148,0.57129 -3.47168,1.62598 -1.45019,1.05469 -2.24121,2.54883 -0.74707,1.49414 -0.74707,3.33984 0,1.18652 0.35156,2.28516 0.35157,1.09863 1.18653,2.24121 0.83496,1.09863 2.19726,2.37304 1.40625,1.23047 3.47168,2.8125 l 3.95508,2.94434 q 3.16406,2.41699 5.40527,4.61426 2.24122,2.15332 3.64747,4.26269 1.40625,2.10938 2.06542,4.30664 0.65918,2.15332 0.65918,4.57032 0,2.02148 -0.52734,4.08691 -0.52734,2.02148 -1.53809,3.95508 -0.96679,1.93359 -2.41699,3.6914 -1.40625,1.71387 -3.16406,3.12012 -3.86719,3.12012 -9.09668,4.57031 -5.18555,1.4502 -12.30469,1.4502 -1.8457,0 -3.6914,-0.0879 -1.84571,-0.0439 -3.69141,-0.26367 -1.40625,-0.17578 -2.50488,-0.35157 -1.05469,-0.17578 -2.15332,-0.3955 -1.05469,-0.21973 -2.28516,-0.52735 -1.23047,-0.26367 -2.85644,-0.70312 l 2.06543,-10.54688 q 1.01074,0.39551 1.75781,0.70313 0.74707,0.30762 1.45019,0.52734 0.70313,0.21973 1.4502,0.43946 0.74707,0.21972 1.71387,0.48339 1.62597,0.52735 2.98828,0.87891 1.3623,0.30762 2.59277,0.52734 1.23047,0.21973 2.37305,0.30762 1.18652,0.0879 2.41699,0.0879 2.90039,0 5.18555,-0.65918 2.3291,-0.65918 3.95507,-1.88965 1.62598,-1.27441 2.46094,-3.03222 0.87891,-1.75782 0.87891,-3.95508 0,-2.37305 -0.79102,-3.95508 -0.83496,-1.49414 -2.63672,-3.38379 -1.75781,-1.88965 -4.13086,-3.55957 l -3.6914,-2.68066 q -2.85645,-2.10938 -4.87793,-4.04297 -1.97754,-1.97754 -3.25195,-3.91113 -1.27442,-1.97754 -1.88965,-3.95508 -0.57129,-2.02149 -0.57129,-4.21875 0,-4.35059 1.8457,-8.04199 1.8457,-3.69141 5.09766,-6.37208 3.25195,-2.7246 7.73437,-4.21875 4.52637,-1.53808 9.8877,-1.53808 2.15332,0 4.48242,0.21973 2.3291,0.17578 4.70215,0.52734 1.3623,0.21973 2.37304,0.43945 1.05469,0.17578 2.06543,0.43946 1.01075,0.21972 2.10938,0.52734 1.09863,0.30762 2.59277,0.74707 z" />
          <path
             inkscape:connector-curvature="0"
             id="path3407"
             d="M 236.08946,200.37135 H 223.0377 l 13.88672,-69.38965 h 12.91992 l -8.08594,40.95704 h 0.0879 q 2.68067,-5.00977 5.53711,-8.87696 2.90039,-3.91113 5.88868,-6.54785 2.98828,-2.68066 6.0205,-4.04297 3.03223,-1.40625 6.06446,-1.40625 1.88965,0 3.42773,0.65918 1.58203,0.65918 2.68067,1.88965 1.14257,1.23047 1.71386,2.98828 0.61524,1.75781 0.61524,3.91113 0,1.36231 -0.13184,2.9004 -0.13184,1.53808 -0.4834,3.03222 l -6.76758,33.92578 h -12.96386 l 6.59179,-33.04687 q 0.0879,-0.52735 0.13184,-0.9668 0.0439,-0.4834 0.0439,-0.92285 0,-1.18652 -0.52735,-1.8457 -0.4834,-0.65918 -1.3623,-0.65918 -1.14258,0 -2.59278,0.96679 -1.45019,0.9668 -3.07617,2.72461 -1.3623,1.49414 -2.76855,3.12012 -1.36231,1.58203 -2.72461,3.33984 -1.36231,1.71387 -2.3291,3.03223 -0.9668,1.27441 -1.84571,2.50488 -0.83496,1.23047 -1.71386,2.59278 -0.87891,1.31836 -2.02149,3.12011 l -3.16406,16.04004 z" />
          <path
             inkscape:connector-curvature="0"
             id="path3409"
             d="m 311.4034,180.28835 q -2.50488,4.83398 -5.44921,8.74511 -2.94434,3.91114 -6.06446,6.67969 -3.07617,2.76855 -6.19629,4.2627 -3.12011,1.49414 -5.97656,1.49414 -2.10937,0 -3.95508,-0.92286 -1.80176,-0.92285 -3.16406,-2.54882 -1.3623,-1.62598 -2.15332,-3.7793 -0.79102,-2.19727 -0.79102,-4.6582 0,-3.42774 0.92286,-7.20703 0.92285,-3.7793 2.59277,-7.5586 1.66992,-3.82324 3.99902,-7.42676 2.3291,-3.60351 5.18555,-6.67968 2.06543,-2.24121 4.43848,-3.99903 2.41699,-1.80176 4.96582,-3.03222 2.54882,-1.27442 5.1416,-1.9336 2.63672,-0.65918 5.1416,-0.65918 0.87891,0 1.58203,0.0439 0.74707,0.0439 1.53809,0.17578 0.79101,0.0879 1.66992,0.30762 0.92285,0.21972 2.15332,0.52734 h 13.05176 l -9.62403,48.25195 h -12.96386 l 3.95507,-20.083 z m 3.86719,-19.51172 q -1.49414,-0.83496 -3.07617,-1.23047 -1.53809,-0.39551 -3.03223,-0.39551 -2.98828,0 -5.93261,1.88965 -1.71387,1.14258 -3.16407,2.63672 -1.40625,1.45019 -2.41699,3.20801 -1.40625,2.3291 -2.63672,5.00976 -1.23047,2.63672 -2.15332,5.27344 -0.8789,2.59277 -1.40625,4.96582 -0.4834,2.37305 -0.4834,4.08691 0,1.66992 0.70313,2.63672 0.70312,0.9668 1.88965,0.9668 1.14258,0 2.59277,-0.79102 1.49414,-0.83496 2.98828,-2.24121 1.49414,-1.49414 3.03223,-3.16406 1.58203,-1.71387 3.20801,-3.69141 1.58203,-1.88965 2.63672,-3.208 1.09863,-1.36231 1.97753,-2.54883 0.92286,-1.18653 1.75782,-2.417 0.83496,-1.27441 1.88965,-2.98828 z" />
          <path
             inkscape:connector-curvature="0"
             id="path3411"
             d="m 351.0777,172.20241 q 2.54883,-4.83399 5.40527,-8.74512 2.90039,-3.91113 5.88867,-6.63574 3.03223,-2.76856 5.97657,-4.2627 2.98828,-1.49414 5.66894,-1.49414 0.87891,0 1.75781,0.13184 0.92285,0.13183 1.84571,0.4834 l -3.69141,12.26074 q -1.23047,-0.57129 -2.02148,-0.79102 -0.79102,-0.21972 -1.75782,-0.21972 -1.62597,0 -3.60351,0.92285 -1.9336,0.92285 -3.51563,2.3291 -1.40625,1.27441 -2.90039,2.90039 -1.49414,1.58203 -3.12012,3.55957 -1.31835,1.62598 -2.3291,2.94434 -1.01074,1.31836 -1.93359,2.63672 -0.92285,1.27441 -1.88965,2.76855 -0.9668,1.4502 -2.19726,3.33984 l -3.16407,16.04004 h -13.05175 l 9.62402,-48.25195 h 13.05176 z" />
          <path
             inkscape:connector-curvature="0"
             id="path3413"
             d="m 393.38872,172.20241 q 2.46094,-4.7461 5.36133,-8.65723 2.94433,-3.91113 6.06445,-6.67969 3.12012,-2.76855 6.24023,-4.26269 3.16407,-1.53809 6.02051,-1.53809 2.10938,0 3.91113,0.92285 1.84571,0.92286 3.20801,2.54883 1.36231,1.62598 2.15332,3.7793 0.79102,2.15332 0.79102,4.61426 0,3.42773 -0.92285,7.20703 -0.87891,3.7793 -2.54883,7.60254 -1.66992,3.77929 -4.04297,7.38281 -2.3291,3.60352 -5.18555,6.67969 -2.06543,2.24121 -4.48242,4.04297 -2.37305,1.80175 -4.92187,3.07617 -2.54883,1.23047 -5.18555,1.88965 -2.59277,0.65918 -5.09766,0.65918 -0.8789,0 -1.62597,-0.0439 -0.74707,-0.0439 -1.53809,-0.17578 -0.74707,-0.13184 -1.66992,-0.35156 -0.87891,-0.17578 -2.10938,-0.52735 l -3.42773,17.3584 h -13.05176 l 13.05176,-65.61035 h 13.05176 l -4.04297,20.08301 z m -3.86719,19.51172 q 1.49414,0.74707 3.03223,1.18652 1.58203,0.43945 3.07617,0.43945 2.98828,0 5.93262,-1.88965 1.71386,-1.14257 3.16406,-2.59277 1.45019,-1.49414 2.50488,-3.33984 1.36231,-2.3291 2.59277,-5.00977 1.23047,-2.68066 2.10938,-5.31738 0.92285,-2.63672 1.45019,-5.00977 0.52735,-2.41699 0.52735,-4.1748 0,-1.71387 -0.70313,-2.63672 -0.70312,-0.9668 -1.88964,-0.9668 -1.23047,0 -2.68067,0.83496 -1.45019,0.79102 -3.03223,2.28516 -2.98828,2.98828 -6.19628,6.85547 -1.53809,1.88965 -2.63672,3.25195 -1.05469,1.36231 -1.9336,2.59278 -0.8789,1.18652 -1.75781,2.46093 -0.83496,1.27442 -1.93359,3.03223 z" />
        </g>
        <g
           id="flowRoot3439"
           style="font-style:normal;font-variant:normal;font-weight:bold;font-stretch:normal;font-size:90px;line-height:125%;font-family:'Segoe UI';-inkscape-font-specification:'Segoe UI, Bold';text-align:start;letter-spacing:0px;word-spacing:0px;writing-mode:lr-tb;text-anchor:start;fill:#000000;fill-opacity:1;stroke:none;stroke-width:1px;stroke-linecap:butt;stroke-linejoin:miter;stroke-opacity:1"
           transform="matrix(0.77805769,0,0,0.77805769,186.86315,-203.64296)">
          <path
             inkscape:connector-curvature="0"
             id="path3416"
             d="m 297.57422,374.51226 h -14.32617 l -25.97168,-39.59473 q -2.28516,-3.47168 -3.16407,-5.22949 h -0.17578 q 0.35157,3.33985 0.35157,10.19531 v 34.62891 h -13.40332 v -63.01758 h 15.29296 l 25.00489,38.36426 q 1.71386,2.59277 3.16406,5.1416 h 0.17578 q -0.35156,-2.19726 -0.35156,-8.65722 v -34.84864 h 13.40332 z" />
          <path
             inkscape:connector-curvature="0"
             id="path3418"
             d="m 349.86914,374.51226 h -37.79297 v -63.01758 h 36.34278 v 11.55762 h -22.14844 v 14.01855 h 20.61035 v 11.51368 h -20.61035 v 14.41406 h 23.59863 z" />
          <path
             inkscape:connector-curvature="0"
             id="path3420"
             d="m 415.47949,374.51226 h -15.46875 l -4.48242,-14.01855 h -22.41211 l -4.43848,14.01855 h -15.38086 l 22.93946,-63.01758 h 16.83105 z m -23.20312,-24.91699 -6.76758,-21.18164 q -0.74707,-2.37305 -1.05469,-5.66895 h -0.35156 q -0.21973,2.76856 -1.09863,5.49317 l -6.85547,21.35742 z" />
          <path
             inkscape:connector-curvature="0"
             id="path3422"
             d="M 467.59863,323.0523 H 449.625 v 51.45996 H 435.38672 V 323.0523 h -17.88574 v -11.55762 h 50.09765 z" />
        </g>
        <g
           id="text3365"
           style="font-style:normal;font-variant:normal;font-weight:normal;font-stretch:normal;font-size:29.51288605px;line-height:125%;font-family:Arial;-inkscape-font-specification:'Arial, Normal';text-align:start;letter-spacing:0px;word-spacing:0px;writing-mode:lr-tb;text-anchor:start;fill:#000000;fill-opacity:1;stroke:none;stroke-width:1px;stroke-linecap:butt;stroke-linejoin:miter;stroke-opacity:1">
          <path
             inkscape:connector-curvature="0"
             id="path3425"
             d="m 173.91855,130.60669 v -21.12592 h 15.27522 v 2.49303 H 176.7142 v 6.47035 h 11.68699 v 2.47862 H 176.7142 v 7.19089 h 12.96953 v 2.49303 z" />
          <path
             inkscape:connector-curvature="0"
             id="path3427"
             d="m 197.49427,130.60669 -5.82188,-15.30405 h 2.73801 l 3.28562,9.16514 q 0.53319,1.48429 0.97992,3.08386 0.34585,-1.21048 0.96551,-2.91093 l 3.4009,-9.33807 h 2.66596 l -5.79306,15.30405 z" />
          <path
             inkscape:connector-curvature="0"
             id="path3429"
             d="m 207.09172,122.95467 q 0,-4.25113 2.36334,-6.29743 1.97425,-1.70045 4.81313,-1.70045 3.15592,0 5.159,2.07512 2.00307,2.06072 2.00307,5.7066 0,2.95417 -0.89346,4.65462 -0.87905,1.68604 -2.57949,2.62273 -1.68604,0.93668 -3.68912,0.93668 -3.21356,0 -5.20222,-2.06071 -1.97425,-2.06071 -1.97425,-5.93716 z m 2.66596,0 q 0,2.93976 1.28254,4.40964 1.28254,1.45547 3.22797,1.45547 1.93102,0 3.21357,-1.46988 1.28254,-1.46988 1.28254,-4.4817 0,-2.83888 -1.29695,-4.29435 -1.28255,-1.46988 -3.19916,-1.46988 -1.94543,0 -3.22797,1.45547 -1.28254,1.45547 -1.28254,4.39523 z" />
          <path
             inkscape:connector-curvature="0"
             id="path3431"
             d="m 224.42766,130.60669 v -21.12592 h 2.5939 v 21.12592 z" />
          <path
             inkscape:connector-curvature="0"
             id="path3433"
             d="m 241.0863,130.60669 v -2.24805 q -1.78691,2.5939 -4.85637,2.5939 -1.35459,0 -2.53626,-0.51878 -1.16726,-0.51878 -1.74368,-1.29695 -0.56201,-0.79258 -0.79258,-1.93102 -0.15852,-0.76376 -0.15852,-2.42098 v -9.48217 h 2.59391 v 8.48784 q 0,2.03189 0.15851,2.73801 0.24498,1.02315 1.03757,1.61399 0.79258,0.57642 1.95984,0.57642 1.16725,0 2.1904,-0.59083 1.02316,-0.60525 1.44106,-1.6284 0.43232,-1.03756 0.43232,-2.9974 v -8.19963 h 2.59391 v 15.30405 z" />
          <path
             inkscape:connector-curvature="0"
             id="path3435"
             d="m 253.14797,128.28658 0.37467,2.29129 q -1.0952,0.23057 -1.95984,0.23057 -1.41223,0 -2.19041,-0.44673 -0.77817,-0.44673 -1.0952,-1.16726 -0.31703,-0.73494 -0.31703,-3.06945 v -8.80487 h -1.9022 v -2.01749 h 1.9022 v -3.78998 l 2.57949,-1.55634 v 5.34632 h 2.60832 v 2.01749 h -2.60832 v 8.94897 q 0,1.10962 0.1297,1.42665 0.1441,0.31703 0.44672,0.50437 0.31704,0.18734 0.89346,0.18734 0.43232,0 1.13844,-0.10088 z" />
          <path
             inkscape:connector-curvature="0"
             id="path3437"
             d="m 255.68423,112.46376 v -2.98299 h 2.5939 v 2.98299 z m 0,18.14293 v -15.30405 h 2.5939 v 15.30405 z" />
          <path
             inkscape:connector-curvature="0"
             id="path3439"
             d="m 261.27554,122.95467 q 0,-4.25113 2.36333,-6.29743 1.97425,-1.70045 4.81314,-1.70045 3.15592,0 5.15899,2.07512 2.00307,2.06072 2.00307,5.7066 0,2.95417 -0.89345,4.65462 -0.87905,1.68604 -2.5795,2.62273 -1.68604,0.93668 -3.68911,0.93668 -3.21356,0 -5.20222,-2.06071 -1.97425,-2.06071 -1.97425,-5.93716 z m 2.66596,0 q 0,2.93976 1.28254,4.40964 1.28254,1.45547 3.22797,1.45547 1.93102,0 3.21356,-1.46988 1.28254,-1.46988 1.28254,-4.4817 0,-2.83888 -1.29695,-4.29435 -1.28254,-1.46988 -3.19915,-1.46988 -1.94543,0 -3.22797,1.45547 -1.28254,1.45547 -1.28254,4.39523 z" />
          <path
             inkscape:connector-curvature="0"
             id="path3441"
             d="m 278.66912,130.60669 v -15.30405 h 2.33451 v 2.176 q 1.68604,-2.52185 4.87078,-2.52185 1.38342,0 2.53626,0.50437 1.16726,0.48996 1.74369,1.29695 0.57642,0.807 0.80699,1.91661 0.1441,0.72053 0.1441,2.52185 v 9.41012 h -2.5939 v -9.30924 q 0,-1.58517 -0.30262,-2.36334 -0.30263,-0.79258 -1.0808,-1.25372 -0.76376,-0.47555 -1.80132,-0.47555 -1.65722,0 -2.86771,1.05197 -1.19608,1.05198 -1.19608,3.99174 v 8.35814 z" />
          <path
             inkscape:connector-curvature="0"
             id="path3443"
             d="m 302.3169,122.95467 q 0,-4.25113 2.36333,-6.29743 1.97425,-1.70045 4.81314,-1.70045 3.15592,0 5.15899,2.07512 2.00307,2.06072 2.00307,5.7066 0,2.95417 -0.89346,4.65462 -0.87904,1.68604 -2.57949,2.62273 -1.68604,0.93668 -3.68911,0.93668 -3.21356,0 -5.20222,-2.06071 -1.97425,-2.06071 -1.97425,-5.93716 z m 2.66595,0 q 0,2.93976 1.28255,4.40964 1.28254,1.45547 3.22797,1.45547 1.93102,0 3.21356,-1.46988 1.28254,-1.46988 1.28254,-4.4817 0,-2.83888 -1.29695,-4.29435 -1.28254,-1.46988 -3.19915,-1.46988 -1.94543,0 -3.22797,1.45547 -1.28255,1.45547 -1.28255,4.39523 z" />
          <path
             inkscape:connector-curvature="0"
             id="path3445"
             d="m 320.33013,130.60669 v -13.28656 h -2.29128 v -2.01749 h 2.29128 v -1.62839 q 0,-1.54194 0.2738,-2.29129 0.37468,-1.00874 1.31136,-1.62839 0.9511,-0.63407 2.65155,-0.63407 1.09521,0 2.42098,0.25939 l -0.38908,2.26246 q -0.807,-0.1441 -1.52753,-0.1441 -1.18166,0 -1.67162,0.50437 -0.48996,0.50437 -0.48996,1.88779 v 1.41223 h 2.98299 v 2.01749 h -2.98299 v 13.28656 z" />
          <path
             inkscape:connector-curvature="0"
             id="path3447"
             d="m 336.38352,130.60669 v -21.12592 h 2.86771 l 11.09615,16.58658 v -16.58658 h 2.68037 v 21.12592 h -2.86771 l -11.09615,-16.601 v 16.601 z" />
          <path
             inkscape:connector-curvature="0"
             id="path3449"
             d="m 367.88508,125.67827 2.68037,0.33144 q -0.63407,2.34893 -2.34893,3.64588 -1.71486,1.29695 -4.38082,1.29695 -3.35767,0 -5.33192,-2.06071 -1.95984,-2.07513 -1.95984,-5.80747 0,-3.86204 1.98867,-5.9948 1.98866,-2.13277 5.15899,-2.13277 3.06945,0 5.01488,2.08954 1.94543,2.08953 1.94543,5.87952 0,0.23056 -0.0144,0.6917 h -11.41319 q 0.14411,2.52186 1.42665,3.86204 1.28254,1.34019 3.19915,1.34019 1.42665,0 2.43539,-0.74935 1.00874,-0.74935 1.59958,-2.39216 z m -8.51666,-4.19348 h 8.54548 q -0.17293,-1.93102 -0.97992,-2.89653 -1.23931,-1.4987 -3.21356,-1.4987 -1.78692,0 -3.01182,1.19608 -1.21049,1.19607 -1.34018,3.19915 z" />
          <path
             inkscape:connector-curvature="0"
             id="path3451"
             d="m 383.86642,130.60669 v -2.24805 q -1.78691,2.5939 -4.85637,2.5939 -1.35459,0 -2.53626,-0.51878 -1.16726,-0.51878 -1.74368,-1.29695 -0.56202,-0.79258 -0.79259,-1.93102 -0.15851,-0.76376 -0.15851,-2.42098 v -9.48217 h 2.5939 v 8.48784 q 0,2.03189 0.15852,2.73801 0.24498,1.02315 1.03756,1.61399 0.79258,0.57642 1.95984,0.57642 1.16726,0 2.19041,-0.59083 1.02315,-0.60525 1.44106,-1.6284 0.43232,-1.03756 0.43232,-2.9974 v -8.19963 h 2.5939 v 15.30405 z" />
          <path
             inkscape:connector-curvature="0"
             id="path3453"
             d="m 390.2359,130.60669 v -15.30405 h 2.33451 v 2.32011 q 0.89346,-1.6284 1.64281,-2.14718 0.76376,-0.51878 1.67163,-0.51878 1.31136,0 2.66596,0.83581 l -0.89346,2.40657 q -0.9511,-0.56201 -1.9022,-0.56201 -0.85022,0 -1.52752,0.51878 -0.6773,0.50437 -0.96551,1.41224 -0.43232,1.38341 -0.43232,3.02622 v 8.01229 z" />
          <path
             inkscape:connector-curvature="0"
             id="path3455"
             d="m 410.1081,128.7189 q -1.44106,1.2249 -2.78124,1.72927 -1.32578,0.50437 -2.8533,0.50437 -2.52185,0 -3.87645,-1.2249 -1.35459,-1.23931 -1.35459,-3.15592 0,-1.12402 0.50437,-2.0463 0.51878,-0.93669 1.34018,-1.4987 0.83582,-0.56201 1.87338,-0.85023 0.76376,-0.20174 2.30569,-0.38908 3.14151,-0.37468 4.6258,-0.89346 0.0144,-0.53319 0.0144,-0.6773 0,-1.58516 -0.73494,-2.23364 -0.99433,-0.87904 -2.95417,-0.87904 -1.83014,0 -2.70919,0.64847 -0.86464,0.63407 -1.28254,2.26247 l -2.53627,-0.34586 q 0.34586,-1.62839 1.13844,-2.62272 0.79258,-1.00875 2.29128,-1.54194 1.49871,-0.5476 3.47296,-0.5476 1.95984,0 3.18474,0.46114 1.2249,0.46114 1.80132,1.16726 0.57642,0.6917 0.80699,1.75809 0.1297,0.66289 0.1297,2.39216 v 3.45854 q 0,3.61706 0.15851,4.58256 0.17293,0.9511 0.66289,1.83015 h -2.70919 q -0.4035,-0.80699 -0.51878,-1.88779 z m -0.21616,-5.79305 q -1.41224,0.57642 -4.23671,0.97992 -1.59958,0.23057 -2.26246,0.51878 -0.66289,0.28821 -1.02316,0.85022 -0.36026,0.5476 -0.36026,1.2249 0,1.03756 0.77817,1.72927 0.79258,0.69171 2.30569,0.69171 1.49871,0 2.66596,-0.64848 1.16726,-0.66288 1.71486,-1.80132 0.41791,-0.87905 0.41791,-2.59391 z" />
          <path
             inkscape:connector-curvature="0"
             id="path3457"
             d="m 416.49199,130.60669 v -21.12592 h 2.59391 v 21.12592 z" />
          <path
             inkscape:connector-curvature="0"
             id="path3459"
             d="m 431.60869,130.60669 v -21.12592 h 2.86771 l 11.09615,16.58658 v -16.58658 h 2.68037 v 21.12592 h -2.8677 l -11.09616,-16.601 v 16.601 z" />
          <path
             inkscape:connector-curvature="0"
             id="path3461"
             d="m 463.11024,125.67827 2.68037,0.33144 q -0.63407,2.34893 -2.34893,3.64588 -1.71486,1.29695 -4.38082,1.29695 -3.35767,0 -5.33192,-2.06071 -1.95984,-2.07513 -1.95984,-5.80747 0,-3.86204 1.98866,-5.9948 1.98867,-2.13277 5.15899,-2.13277 3.06946,0 5.01489,2.08954 1.94543,2.08953 1.94543,5.87952 0,0.23056 -0.0144,0.6917 h -11.41319 q 0.14411,2.52186 1.42665,3.86204 1.28254,1.34019 3.19915,1.34019 1.42665,0 2.43539,-0.74935 1.00874,-0.74935 1.59958,-2.39216 z m -8.51666,-4.19348 h 8.54548 q -0.17293,-1.93102 -0.97992,-2.89653 -1.23931,-1.4987 -3.21356,-1.4987 -1.78692,0 -3.01182,1.19608 -1.21049,1.19607 -1.34018,3.19915 z" />
          <path
             inkscape:connector-curvature="0"
             id="path3463"
             d="m 474.72517,128.28658 0.37468,2.29129 q -1.09521,0.23057 -1.95985,0.23057 -1.41223,0 -2.1904,-0.44673 -0.77818,-0.44673 -1.09521,-1.16726 -0.31703,-0.73494 -0.31703,-3.06945 v -8.80487 h -1.9022 v -2.01749 h 1.9022 v -3.78998 l 2.57949,-1.55634 v 5.34632 h 2.60832 v 2.01749 h -2.60832 v 8.94897 q 0,1.10962 0.1297,1.42665 0.1441,0.31703 0.44673,0.50437 0.31703,0.18734 0.89345,0.18734 0.43232,0 1.13844,-0.10088 z" />
          <path
             inkscape:connector-curvature="0"
             id="path3465"
             d="m 480.07149,130.60669 -4.68344,-15.30405 h 2.68037 l 2.43539,8.8337 0.90787,3.28561 q 0.0576,-0.24498 0.79258,-3.15592 l 2.43539,-8.96339 h 2.66596 l 2.29128,8.87693 0.76377,2.92535 0.87904,-2.95417 2.62273,-8.84811 h 2.52185 l -4.78431,15.30405 h -2.69478 l -2.43539,-9.16514 -0.59084,-2.60831 -3.09827,11.77345 z" />
          <path
             inkscape:connector-curvature="0"
             id="path3467"
             d="m 497.66682,122.95467 q 0,-4.25113 2.36334,-6.29743 1.97425,-1.70045 4.81314,-1.70045 3.15592,0 5.15899,2.07512 2.00307,2.06072 2.00307,5.7066 0,2.95417 -0.89346,4.65462 -0.87904,1.68604 -2.57949,2.62273 -1.68604,0.93668 -3.68911,0.93668 -3.21356,0 -5.20222,-2.06071 -1.97426,-2.06071 -1.97426,-5.93716 z m 2.66596,0 q 0,2.93976 1.28255,4.40964 1.28254,1.45547 3.22797,1.45547 1.93102,0 3.21356,-1.46988 1.28254,-1.46988 1.28254,-4.4817 0,-2.83888 -1.29695,-4.29435 -1.28254,-1.46988 -3.19915,-1.46988 -1.94543,0 -3.22797,1.45547 -1.28255,1.45547 -1.28255,4.39523 z" />
          <path
             inkscape:connector-curvature="0"
             id="path3469"
             d="m 515.03158,130.60669 v -15.30405 h 2.33452 v 2.32011 q 0.89346,-1.6284 1.64281,-2.14718 0.76376,-0.51878 1.67162,-0.51878 1.31137,0 2.66596,0.83581 l -0.89345,2.40657 q -0.9511,-0.56201 -1.9022,-0.56201 -0.85023,0 -1.52752,0.51878 -0.6773,0.50437 -0.96551,1.41224 -0.43232,1.38341 -0.43232,3.02622 v 8.01229 z" />
          <path
             inkscape:connector-curvature="0"
             id="path3471"
             d="m 524.93166,130.60669 v -21.12592 h 2.5939 v 12.04725 l 6.13891,-6.22538 h 3.35767 l -5.8507,5.67778 6.44154,9.62627 h -3.19916 l -5.05811,-7.82495 -1.83015,1.75809 v 6.06686 z" />
          <path
             inkscape:connector-curvature="0"
             id="path3473"
             d="m 538.63615,126.03853 2.56509,-0.40349 q 0.21616,1.54193 1.19608,2.36333 0.99433,0.82141 2.76683,0.82141 1.78691,0 2.65155,-0.72053 0.86463,-0.73494 0.86463,-1.71486 0,-0.87905 -0.76376,-1.38342 -0.53319,-0.34585 -2.65155,-0.87905 -2.85329,-0.72052 -3.96291,-1.23931 -1.0952,-0.53319 -1.67163,-1.45547 -0.56201,-0.93668 -0.56201,-2.06071 0,-1.02315 0.46114,-1.88779 0.47555,-0.87904 1.28254,-1.45547 0.60525,-0.44672 1.64281,-0.74935 1.05197,-0.31703 2.24805,-0.31703 1.80133,0 3.15592,0.51878 1.36901,0.51878 2.01748,1.41224 0.64848,0.87904 0.89346,2.36334 l -2.53626,0.34585 q -0.17293,-1.18167 -1.00875,-1.84456 -0.8214,-0.66288 -2.33451,-0.66288 -1.78691,0 -2.55067,0.59083 -0.76377,0.59084 -0.76377,1.38342 0,0.50437 0.31704,0.90786 0.31703,0.41791 0.99433,0.69171 0.38908,0.14411 2.29128,0.66289 2.75242,0.73494 3.83322,1.21049 1.0952,0.46114 1.71486,1.3546 0.61965,0.89345 0.61965,2.21923 0,1.29695 -0.76376,2.4498 -0.74935,1.13843 -2.176,1.7725 -1.42665,0.61965 -3.22797,0.61965 -2.98299,0 -4.55374,-1.23931 -1.55635,-1.23931 -1.98867,-3.6747 z" />
        </g>
      </g>
    </g>
  </g>
</svg>
