<?xml version="1.0" encoding="UTF-8" standalone="no"?>
<!-- Created with Inkscape (http://www.inkscape.org/) -->

<svg
   xmlns:dc="http://purl.org/dc/elements/1.1/"
   xmlns:cc="http://creativecommons.org/ns#"
   xmlns:rdf="http://www.w3.org/1999/02/22-rdf-syntax-ns#"
   xmlns:svg="http://www.w3.org/2000/svg"
   xmlns="http://www.w3.org/2000/svg"
   xmlns:sodipodi="http://sodipodi.sourceforge.net/DTD/sodipodi-0.dtd"
   xmlns:inkscape="http://www.inkscape.org/namespaces/inkscape"
   width="744.09448819"
   height="1052.3622047"
   id="svg2"
   version="1.1"
   inkscape:version="0.48.0 r9654"
   sodipodi:docname="newlogo.png">
  <defs
     id="defs4">
    <clipPath
       id="clipPath3063"
       clipPathUnits="userSpaceOnUse">
      <path
         id="path3065"
         d="M 0,7031.89 0,0 l 4806.26,0 0,7031.89 -4806.26,0 z" />
    </clipPath>
    <clipPath
       id="clipPath3051"
       clipPathUnits="userSpaceOnUse">
      <path
         id="path3053"
         d="m 3563.78,4328.08 0,179.92 629.95,0 0,-179.92 -629.95,0 z" />
    </clipPath>
    <clipPath
       id="clipPath3001"
       clipPathUnits="userSpaceOnUse">
      <path
         id="path3003"
         d="M 0,7031.89 0,0 l 4806.26,0 0,7031.89 -4806.26,0 z" />
    </clipPath>
  </defs>
  <sodipodi:namedview
     id="base"
     pagecolor="#ffffff"
     bordercolor="#666666"
     borderopacity="1.0"
     inkscape:pageopacity="0.0"
     inkscape:pageshadow="2"
     inkscape:zoom="1"
     inkscape:cx="229.76173"
     inkscape:cy="799.419"
     inkscape:document-units="px"
     inkscape:current-layer="g2999"
     showgrid="false"
     inkscape:window-width="2048"
     inkscape:window-height="1090"
     inkscape:window-x="1272"
     inkscape:window-y="-8"
     inkscape:window-maximized="1" />
  <metadata
     id="metadata7">
    <rdf:RDF>
      <cc:Work
         rdf:about="">
        <dc:format>image/svg+xml</dc:format>
        <dc:type
           rdf:resource="http://purl.org/dc/dcmitype/StillImage" />
        <dc:title></dc:title>
      </cc:Work>
    </rdf:RDF>
  </metadata>
  <g
     inkscape:label="Layer 1"
     inkscape:groupmode="layer"
     id="layer1">
    <g
       id="g2999"
       clip-path="url(#clipPath3001)"
       transform="matrix(0.125,0,0,-0.125,30.244957,988.61451)">
      <path
         inkscape:connector-curvature="0"
         d="m 1159.91,6639.35 c 73.57,0 140.18,-29.82 188.4,-78.04 48.21,-48.21 78.03,-114.82 78.03,-188.4 0,-66.57 -24.48,-127.48 -64.95,-174.23 -40.2,-46.43 -96.18,-78.83 -159.59,-88.86 -8.08,-9.02 -13.41,-33.98 -14.93,-64.59 -1.68,-33.55 1.88,-72.01 11.96,-103.61 5.96,-18.66 14.08,-34.57 24.54,-44.82 11.91,-9.4 21.68,-21.4 28.45,-35.14 6.76,-13.73 10.56,-29.08 10.56,-45.23 0,-28.3 -11.47,-53.92 -30.01,-72.46 -18.55,-18.55 -44.17,-30.02 -72.46,-30.02 -28.3,0 -53.92,11.47 -72.46,30.02 -18.55,18.54 -30.02,44.16 -30.02,72.46 0,13.98 2.89,27.43 8.11,39.79 5.39,12.75 13.24,24.17 22.96,33.61 2.53,2.47 4.43,4.1 6.13,5.56 1.92,1.65 3.39,2.91 5.63,6.1 8.36,11.86 14.99,26.38 20.05,42.21 10.93,34.25 14.57,74.3 12.44,108.03 -1.83,29.01 -6.97,51.56 -14.38,58.03 -32.87,5.15 -63.76,16.33 -91.51,32.35 -28.239,16.31 -53.227,37.71 -73.751,62.97 -11.808,2.57 -36.195,-5.32 -63.601,-19.37 -29.727,-15.24 -61.184,-37.53 -83.586,-62.16 -13.227,-14.53 -22.969,-29.5 -26.609,-43.59 -2.2,-15.04 -7.715,-29.53 -16.243,-42.28 -8.461,-12.67 -19.851,-23.61 -33.859,-31.7 l -0.078,-0.04 c -24.516,-14.12 -52.395,-17 -77.664,-10.23 -25.317,6.79 -48.047,23.23 -62.188,47.72 -0.25,0.43 -0.476,0.86 -0.687,1.29 -13.555,24.22 -16.246,51.6 -9.586,76.46 6.785,25.31 23.226,48.04 47.726,62.18 12.293,7.1 25.407,11.37 38.575,13.01 13.613,1.7 27.39,0.58 40.492,-3.12 3.066,-0.87 5.582,-1.75 7.844,-2.54 2.488,-0.88 4.398,-1.55 8.187,-1.89 13.887,-1.26 29.383,0.18 45.426,3.59 35.344,7.5 72.117,24.36 100.433,43.11 24.411,16.15 41.551,31.97 43.559,41.71 -5.613,14.57 -9.984,29.71 -12.973,45.28 -3.156,16.45 -4.804,33.3 -4.804,50.4 0,17.12 1.648,33.98 4.804,50.43 2.961,15.43 7.282,30.43 12.817,44.88 -3.789,11.58 -23.02,28.83 -49.082,45.58 -28.442,18.29 -63.782,34.42 -96.274,41.27 -18.769,3.97 -36.183,4.78 -49.941,0.93 -14.113,-5.61 -29.352,-8.07 -44.559,-7.06 -15.152,0.99 -30.34,5.4 -44.425,13.53 l -0.059,0.04 -0.02,-0.04 c -24.5,14.15 -40.941,36.88 -47.726,62.19 -6.766,25.27 -3.879,53.15 10.273,77.66 14.18,24.56 36.907,41.03 62.188,47.81 25.265,6.76 53.148,3.87 77.656,-10.27 l 0.063,-0.04 0.023,0.04 c 12.23,-7.07 22.449,-16.27 30.461,-26.86 8.324,-11.01 14.273,-23.54 17.617,-36.75 0.758,-2.99 1.262,-5.64 1.703,-8.02 0.477,-2.51 0.836,-4.43 2.485,-7.98 6.023,-13.03 15.304,-26.03 26.582,-38.42 24.246,-26.66 57.058,-49.83 87.218,-64.79 26.149,-12.97 48.332,-19.79 57.618,-16.53 24.539,30.28 55.555,55.07 90.915,72.22 35.15,17.06 74.54,26.62 116.1,26.62"
         style="fill:#fbc459;fill-opacity:1;fill-rule:nonzero;stroke:none"
         id="path3005" />
      <path
         inkscape:connector-curvature="0"
         d="m 1203.32,6509.65 c 9.89,-3.14 19.37,-7.35 28.28,-12.51 8.77,-5.07 16.95,-11.04 24.42,-17.79 16.41,-1.96 63.33,17.87 115.27,46.5 55.97,30.85 115.19,71.71 147.88,107.66 11.27,12.37 18.91,23.5 21.34,32.41 2.2,15.03 7.72,29.5 16.23,42.24 8.47,12.66 19.86,23.61 33.87,31.7 l 0.07,0.04 c 24.52,14.12 52.4,17 77.66,10.23 25.32,-6.79 48.05,-23.23 62.19,-47.73 0.25,-0.42 0.48,-0.85 0.69,-1.29 13.56,-24.22 16.25,-51.6 9.59,-76.45 -6.79,-25.31 -23.23,-48.04 -47.73,-62.19 -12.29,-7.09 -25.4,-11.36 -38.57,-13.01 -13.62,-1.69 -27.4,-0.58 -40.5,3.13 -3.06,0.86 -5.58,1.75 -7.84,2.54 -2.49,0.88 -4.4,1.55 -8.19,1.89 -8.64,0.78 -19.83,-0.46 -32.8,-3.29 -48.75,-10.62 -115.9,-42.81 -171.43,-76.8 -50.42,-30.88 -90.12,-60.72 -93.74,-73.18 1.02,-4.61 1.81,-9.35 2.37,-14.18 0.66,-5.61 0.99,-11.17 0.99,-16.66 0,-5.47 -0.33,-11.03 -0.99,-16.64 -0.52,-4.57 -1.27,-9.05 -2.2,-13.42 6.57,-15.21 47.14,-45.87 97.82,-76.49 54.72,-33.06 119.72,-63.91 167.18,-74.26 16.44,-3.58 29.94,-4.64 38.88,-2.24 14.09,5.59 29.32,8.04 44.51,7.04 15.16,-0.99 30.35,-5.4 44.43,-13.54 l 0.06,-0.03 0.02,0.03 c 24.5,-14.14 40.94,-36.87 47.73,-62.18 6.76,-25.27 3.88,-53.16 -10.28,-77.66 -14.18,-24.56 -36.9,-41.04 -62.19,-47.81 -25.26,-6.77 -53.14,-3.88 -77.66,10.27 l -0.05,0.04 -0.02,-0.04 c -12.24,7.06 -22.46,16.27 -30.47,26.86 -8.32,11 -14.28,23.54 -17.62,36.74 -0.75,2.99 -1.26,5.65 -1.7,8.02 -0.47,2.51 -0.83,4.43 -2.48,7.99 -3.69,7.97 -10.32,17.02 -19.17,26.74 -33.61,36.94 -95.06,79.01 -152.24,110.09 -52.14,28.34 -97.99,47.81 -110.42,44.51 -12.62,-11.52 -27.39,-20.83 -43.68,-27.3 -16.51,-6.57 -34.38,-10.18 -52.92,-10.18 -39.62,0 -75.49,16.06 -101.45,42.03 -25.96,25.96 -42.02,61.82 -42.02,101.43 0,32.01 10.54,61.61 28.35,85.53 17.64,23.69 42.37,41.74 71.03,50.99 9.92,13.36 16.2,63.82 17.37,122.98 1.27,63.94 -4.51,135.69 -19.29,181.99 -5.07,15.89 -10.91,28.06 -17.49,34.66 -11.9,9.4 -21.65,21.39 -28.42,35.12 -6.76,13.71 -10.56,29.08 -10.56,45.23 0,28.3 11.47,53.91 30.02,72.46 18.54,18.54 44.16,30.02 72.46,30.02 28.29,0 53.91,-11.48 72.46,-30.02 18.54,-18.55 30.01,-44.16 30.01,-72.46 0,-13.98 -2.88,-27.43 -8.1,-39.79 -5.39,-12.76 -13.25,-24.17 -22.96,-33.62 -2.54,-2.46 -4.44,-4.09 -6.13,-5.55 -1.93,-1.66 -3.39,-2.91 -5.64,-6.1 -5.15,-7.3 -9.69,-17.56 -13.64,-29.95 -15.16,-47.51 -20.85,-121.81 -19.18,-186.97 1.53,-59.2 7.56,-108.55 16.59,-117.78"
         style="fill:#9796d3;fill-opacity:1;fill-rule:nonzero;stroke:none"
         id="path3007" />
      <g
         id="g3037"
         transform="scale(10,10)">
        <g
           id="text3039"
           transform="matrix(1,0,0,-1,145.911,398.095)">
          <path
             inkscape:connector-curvature="0"
             id="path3726"
             style="font-size:18.29100037px;font-variant:normal;font-weight:bold;writing-mode:lr-tb;fill:#ffffff;fill-opacity:1;fill-rule:nonzero;stroke:none;font-family:OpenSans;-inkscape-font-specification:OpenSans-Bold"
             d="m 1.3932598,0 0,-13.09307 1.7772993,0 6.8769879,10.279757 0,-10.279757 1.661194,0 0,13.09307 -1.7772994,0 -6.8769874,-10.288688 0,10.288688 z" />
          <path
             inkscape:connector-curvature="0"
             id="path3728"
             style="font-size:18.29100037px;font-variant:normal;font-weight:bold;writing-mode:lr-tb;fill:#ffffff;fill-opacity:1;fill-rule:nonzero;stroke:none;font-family:OpenSans;-inkscape-font-specification:OpenSans-Bold"
             d="m 16.317429,0 0,-13.09307 9.467022,0 0,1.54509 -7.734378,0 0,4.0100873 7.243165,0 0,1.5361582 -7.243165,0 0,4.4566451 8.038037,0 0,1.5450894 z" />
          <path
             inkscape:connector-curvature="0"
             id="path3730"
             style="font-size:18.29100037px;font-variant:normal;font-weight:bold;writing-mode:lr-tb;fill:#ffffff;fill-opacity:1;fill-rule:nonzero;stroke:none;font-family:OpenSans;-inkscape-font-specification:OpenSans-Bold"
             d="m 25.087884,0 5.028239,-13.09307 1.866611,0 L 37.341425,0 l -1.973784,0 -1.527228,-3.9654317 -5.474796,0 L 26.927701,0 z m 3.777877,-5.3765538 4.438783,0 -1.366466,-3.6260479 c -0.416794,-1.1014983 -0.726407,-2.0065213 -0.92884,-2.7150703 -0.16672,0.839539 -0.401907,1.673113 -0.705561,2.5007226 z" />
          <path
             inkscape:connector-curvature="0"
             id="path3732"
             style="font-size:18.29100037px;font-variant:normal;font-weight:bold;writing-mode:lr-tb;fill:#ffffff;fill-opacity:1;fill-rule:nonzero;stroke:none;font-family:OpenSans;-inkscape-font-specification:OpenSans-Bold"
             d="m 41.201129,0 0,-11.54798 -4.313747,0 0,-1.54509 10.377999,0 0,1.54509 -4.331609,0 0,11.54798 z" />
        </g>
      </g>
    </g>
  </g>
</svg>
