<?xml version="1.0" encoding="UTF-8" standalone="no"?>
<!-- Created with Inkscape (http://www.inkscape.org/) -->

<svg
   xmlns:dc="http://purl.org/dc/elements/1.1/"
   xmlns:cc="http://creativecommons.org/ns#"
   xmlns:rdf="http://www.w3.org/1999/02/22-rdf-syntax-ns#"
   xmlns:svg="http://www.w3.org/2000/svg"
   xmlns="http://www.w3.org/2000/svg"
   xmlns:sodipodi="http://sodipodi.sourceforge.net/DTD/sodipodi-0.dtd"
   xmlns:inkscape="http://www.inkscape.org/namespaces/inkscape"
   width="210mm"
   height="297mm"
   viewBox="0 0 744.09448819 1052.3622047"
   id="svg3461"
   version="1.1"
   inkscape:version="0.91 r13725"
   sodipodi:docname="sharpneat_logo_image.svg">
  <defs
     id="defs3463" />
  <sodipodi:namedview
     id="base"
     pagecolor="#ffffff"
     bordercolor="#666666"
     borderopacity="1.0"
     inkscape:pageopacity="0.0"
     inkscape:pageshadow="2"
     inkscape:zoom="1.3289991"
     inkscape:cx="347.69972"
     inkscape:cy="730.68487"
     inkscape:document-units="px"
     inkscape:current-layer="layer1"
     showgrid="false"
     inkscape:window-width="2048"
     inkscape:window-height="1090"
     inkscape:window-x="1432"
     inkscape:window-y="-8"
     inkscape:window-maximized="1" />
  <metadata
     id="metadata3466">
    <rdf:RDF>
      <cc:Work
         rdf:about="">
        <dc:format>image/svg+xml</dc:format>
        <dc:type
           rdf:resource="http://purl.org/dc/dcmitype/StillImage" />
        <dc:title />
      </cc:Work>
    </rdf:RDF>
  </metadata>
  <g
     inkscape:label="Layer 1"
     inkscape:groupmode="layer"
     id="layer1">
    <g
       id="g3335"
       transform="translate(-295.5219,-383.65697)">
      <path
         id="path3005"
         style="fill:#fbc459;fill-opacity:1;fill-rule:nonzero;stroke:none"
         d="m 368.57143,433.34417 c 9.19625,0 17.5225,3.7275 23.55,9.755 6.02624,6.02625 9.75374,14.3525 9.75374,23.55 0,8.32125 -3.06,15.935 -8.11874,21.77875 -5.025,5.80375 -12.0225,9.85375 -19.94875,11.1075 -1.01,1.1275 -1.67625,4.2475 -1.86625,8.07375 -0.21,4.19375 0.235,9.00125 1.495,12.95125 0.745,2.3325 1.76,4.32125 3.0675,5.6025 1.48875,1.175 2.71,2.675 3.55625,4.3925 0.845,1.71625 1.32,3.635 1.32,5.65375 0,3.5375 -1.43375,6.74 -3.75125,9.0575 -2.31875,2.31875 -5.52125,3.7525 -9.0575,3.7525 -3.5375,0 -6.74,-1.43375 -9.0575,-3.7525 -2.31875,-2.3175 -3.7525,-5.52 -3.7525,-9.0575 0,-1.7475 0.36125,-3.42875 1.01375,-4.97375 0.67375,-1.59375 1.655,-3.02125 2.87,-4.20125 0.31625,-0.30875 0.55375,-0.5125 0.76625,-0.695 0.24,-0.20625 0.42375,-0.36375 0.70375,-0.7625 1.045,-1.4825 1.87375,-3.2975 2.50625,-5.27625 1.36625,-4.28125 1.82125,-9.2875 1.555,-13.50375 -0.22875,-3.62625 -0.87125,-6.445 -1.7975,-7.25375 -4.10875,-0.64375 -7.97,-2.04125 -11.43875,-4.04375 -3.52988,-2.03875 -6.65338,-4.71375 -9.21888,-7.87125 -1.476,-0.32125 -4.52437,0.665 -7.95012,2.42125 -3.71588,1.905 -7.648,4.69125 -10.44825,7.77 -1.65338,1.81625 -2.87113,3.6875 -3.32613,5.44875 -0.275,1.88 -0.96437,3.69125 -2.03037,5.285 -1.05763,1.58375 -2.48138,2.95125 -4.23238,3.9625 l -0.01,0.005 c -3.0645,1.765 -6.54937,2.125 -9.708,1.27875 -3.16462,-0.84875 -6.00587,-2.90375 -7.7735,-5.965 -0.0312,-0.0538 -0.0595,-0.1075 -0.0859,-0.16125 -1.69438,-3.0275 -2.03075,-6.45 -1.19825,-9.5575 0.84812,-3.16375 2.90325,-6.005 5.96575,-7.7725 1.53662,-0.8875 3.17587,-1.42125 4.82187,-1.62625 1.70163,-0.2125 3.42375,-0.0725 5.0615,0.39 0.38325,0.10875 0.69775,0.21875 0.9805,0.3175 0.311,0.11 0.54975,0.19375 1.02338,0.23625 1.73587,0.1575 3.67287,-0.0225 5.67825,-0.44875 4.418,-0.9375 9.01462,-3.045 12.55412,-5.38875 3.05138,-2.01875 5.19388,-3.99625 5.44488,-5.21375 -0.70163,-1.82125 -1.248,-3.71375 -1.62163,-5.66 -0.3945,-2.05625 -0.6005,-4.1625 -0.6005,-6.3 0,-2.14 0.206,-4.2475 0.6005,-6.30375 0.37013,-1.92875 0.91025,-3.80375 1.60213,-5.61 -0.47363,-1.4475 -2.8775,-3.60375 -6.13525,-5.6975 -3.55525,-2.28625 -7.97275,-4.3025 -12.03425,-5.15875 -2.34613,-0.49625 -4.52288,-0.5975 -6.24263,-0.11625 -1.76412,0.70125 -3.669,1.00875 -5.56987,0.8825 -1.894,-0.12375 -3.7925,-0.675 -5.55313,-1.69125 l -0.007,-0.005 -0.002,0.005 c -3.0625,-1.76875 -5.11762,-4.61 -5.96575,-7.77375 -0.84575,-3.15875 -0.48487,-6.64375 1.28413,-9.7075 1.7725,-3.07 4.61337,-5.12875 7.7735,-5.97625 3.15812,-0.845 6.6435,-0.48375 9.707,1.28375 l 0.008,0.005 0.003,-0.005 c 1.52875,0.88375 2.80612,2.03375 3.80762,3.3575 1.0405,1.37625 1.78413,2.9425 2.20213,4.59375 0.0947,0.37375 0.15775,0.705 0.21287,1.0025 0.0596,0.31375 0.1045,0.55375 0.31063,0.9975 0.75287,1.62875 1.913,3.25375 3.32275,4.8025 3.03075,3.3325 7.13225,6.22875 10.90225,8.09875 3.26862,1.62125 6.0415,2.47375 7.20225,2.06625 3.06737,-3.785 6.94437,-6.88375 11.36437,-9.0275 4.39375,-2.1325 9.3175,-3.3275 14.5125,-3.3275"
         inkscape:connector-curvature="0" />
      <path
         id="path3007"
         style="fill:#9796d3;fill-opacity:1;fill-rule:nonzero;stroke:none"
         d="m 373.99768,449.55667 c 1.23625,0.3925 2.42125,0.91875 3.535,1.56375 1.09625,0.63375 2.11875,1.38 3.0525,2.22375 2.05125,0.245 7.91625,-2.23375 14.40875,-5.8125 6.99624,-3.85625 14.39874,-8.96375 18.48499,-13.4575 1.40875,-1.54625 2.36375,-2.9375 2.6675,-4.05125 0.275,-1.87875 0.965,-3.6875 2.02875,-5.28 1.05875,-1.5825 2.4825,-2.95125 4.23375,-3.9625 l 0.009,-0.005 c 3.065,-1.765 6.55,-2.125 9.7075,-1.27875 3.165,0.84875 6.00625,2.90375 7.77375,5.96625 0.0312,0.0525 0.06,0.10625 0.0863,0.16125 1.695,3.0275 2.03125,6.45 1.19875,9.55625 -0.84875,3.16375 -2.90375,6.005 -5.96625,7.77375 -1.53625,0.88625 -3.175,1.42 -4.82125,1.62625 -1.7025,0.21125 -3.425,0.0725 -5.0625,-0.39125 -0.3825,-0.1075 -0.6975,-0.21875 -0.98,-0.3175 -0.31125,-0.11 -0.55,-0.19375 -1.02375,-0.23625 -1.08,-0.0975 -2.47875,0.0575 -4.1,0.41125 -6.09375,1.3275 -14.4875,5.35125 -21.42875,9.6 -6.30249,3.86 -11.26499,7.59 -11.71749,9.1475 0.1275,0.57625 0.22625,1.16875 0.29625,1.7725 0.0825,0.70125 0.12375,1.39625 0.12375,2.0825 0,0.68375 -0.0412,1.37875 -0.12375,2.08 -0.065,0.57125 -0.15875,1.13125 -0.275,1.6775 0.82125,1.90125 5.8925,5.73375 12.22749,9.56125 6.84,4.1325 14.965,7.98875 20.8975,9.2825 2.055,0.4475 3.7425,0.58 4.86,0.28 1.76125,-0.69875 3.665,-1.005 5.56375,-0.88 1.895,0.12375 3.79375,0.675 5.55375,1.6925 l 0.008,0.004 0.002,-0.004 c 3.0625,1.7675 5.1175,4.60875 5.96625,7.7725 0.845,3.15875 0.485,6.645 -1.285,9.7075 -1.7725,3.07 -4.6125,5.13 -7.77375,5.97625 -3.1575,0.84625 -6.6425,0.485 -9.7075,-1.28375 l -0.006,-0.005 -0.002,0.005 c -1.53,-0.8825 -2.8075,-2.03375 -3.80875,-3.3575 -1.04,-1.375 -1.785,-2.9425 -2.2025,-4.5925 -0.0937,-0.37375 -0.1575,-0.70625 -0.2125,-1.0025 -0.0588,-0.31375 -0.10375,-0.55375 -0.31,-0.99875 -0.46125,-0.99625 -1.29,-2.1275 -2.39625,-3.3425 -4.20125,-4.6175 -11.8825,-9.87625 -19.02999,-13.76125 -6.5175,-3.5425 -12.24875,-5.97625 -13.8025,-5.56375 -1.5775,1.44 -3.42375,2.60375 -5.46,3.4125 -2.06375,0.82125 -4.2975,1.2725 -6.615,1.2725 -4.9525,0 -9.43625,-2.0075 -12.68125,-5.25375 -3.245,-3.245 -5.2525,-7.7275 -5.2525,-12.67875 0,-4.00125 1.3175,-7.70125 3.54375,-10.69125 2.205,-2.96125 5.29625,-5.2175 8.87875,-6.37375 1.24,-1.67 2.025,-7.9775 2.17125,-15.3725 0.15875,-7.9925 -0.56375,-16.96125 -2.41125,-22.74875 -0.63375,-1.98625 -1.36375,-3.5075 -2.18625,-4.3325 -1.4875,-1.175 -2.70625,-2.67375 -3.5525,-4.39 -0.845,-1.71375 -1.32,-3.635 -1.32,-5.65375 0,-3.5375 1.43375,-6.73875 3.7525,-9.0575 2.3175,-2.3175 5.52,-3.7525 9.0575,-3.7525 3.53625,0 6.73875,1.435 9.0575,3.7525 2.3175,2.31875 3.75125,5.52 3.75125,9.0575 0,1.7475 -0.36,3.42875 -1.0125,4.97375 -0.67375,1.595 -1.65625,3.02125 -2.87,4.2025 -0.3175,0.3075 -0.555,0.51125 -0.76625,0.69375 -0.24125,0.2075 -0.42375,0.36375 -0.705,0.7625 -0.64375,0.9125 -1.21125,2.195 -1.705,3.74375 -1.895,5.93875 -2.60625,15.22625 -2.3975,23.37125 0.19125,7.4 0.945,13.56875 2.07375,14.7225"
         inkscape:connector-curvature="0" />
    </g>
  </g>
</svg>
